<svg width="14" height="14" fill="none" xmlns="http://www.w3.org/2000/svg"><path d="M2.009 9.548h2.997v2.467c-.05.474.092.948.396 1.318a1.825 1.825 0 0 0 1.603.656h.784a.76.76 0 0 0 .457-.168.744.744 0 0 0 .258-.41v-.059l.5-3.128 1.768-2.65H14V.668H4.507C.789.667.01 2.813.01 4.614v2.96c-.05.474.092.948.395 1.318a1.825 1.825 0 0 0 1.604.656Zm8.993-7.894h1.999v4.934h-1.999V1.654ZM1.01 4.614c0-2.018 1.11-2.96 3.498-2.96h5.496v5.28L8.004 9.858l-.364 2.65-.07.493h-.565c-.72 0-1-.276-1-.987V8.561H2.01c-.72 0-1-.276-1-.986V4.614Z" fill="var(--fill-color1)"/></svg>